<svg xmlns="http://www.w3.org/2000/svg" xmlns:xlink="http://www.w3.org/1999/xlink" viewBox="0 0 641.63 132.88"><defs><style>.cls-1{fill:#010101;}.cls-2{fill:none;stroke:#010101;stroke-miterlimit:10;stroke-width:2px;}.cls-3{fill:url(#New_Gradient_Swatch_1);}</style><linearGradient id="New_Gradient_Swatch_1" y1="66.44" x2="290.39" y2="66.44" gradientUnits="userSpaceOnUse"><stop offset="0" stop-color="#f6906b"/><stop offset="0.24" stop-color="#f5876a"/><stop offset="0.64" stop-color="#f36d68"/><stop offset="0.99" stop-color="#f05266"/></linearGradient></defs><title>Asset 1</title><g id="Layer_2" data-name="Layer 2"><g id="Layer_1-2" data-name="Layer 1"><path class="cls-1" d="M78.44,54.73a16.26,16.26,0,0,0-11.7-4.55c-9.48,0-16.35,6.87-16.35,16.35s6.87,16.35,16.35,16.35a15.93,15.93,0,0,0,11.7-4.65l13,12.82A34.83,34.83,0,1,1,66.74,31.69,34.46,34.46,0,0,1,91.26,41.82Z"/><path class="cls-1" d="M98.41,101.36l32.51-69.67h8.27L172,101.36h-18.3l-4.28-9.1H120.89l-4.18,9.1ZM128,76.84h14.21l-7.06-15.33Z"/><path class="cls-1" d="M219.5,57.52l28.33-25.83h8.27v69.67H237.71V65.6L219.5,82.23,201.2,65.69v35.67H182.81V31.69h8.26Z"/><path class="cls-1" d="M272.09,31.69h18.3v69.67h-18.3Z"/><path class="cls-1" d="M308.24,33.55v67.81h-1.86V31.69h3.06l53.79,67.82V31.69h1.85v69.67h-2.87Z"/><path class="cls-1" d="M378.92,31.69h1.86V73.87a25.69,25.69,0,0,0,51.37.09V31.69H434V73.87a27.54,27.54,0,0,1-55.08,0Z"/><path class="cls-1" d="M452.3,33.55v67.81h-1.86V31.69h3.07l53.78,67.82V31.69h1.86v69.67h-2.88Z"/><path class="cls-1" d="M525.68,31.69h43.38v1.86H527.44V64.76h38.74v1.86H527.44V99.51h41.62v1.85H525.68Z"/><path class="cls-1" d="M615.4,49.62a16.07,16.07,0,1,0-16.07,16.07A17.84,17.84,0,1,1,581.5,83.44h1.76a16.07,16.07,0,1,0,16.07-16.08,17.84,17.84,0,1,1,17.84-17.74Z"/><polyline class="cls-2" points="306.17 7.89 640.63 7.89 640.63 124.98 306.17 124.98"/><polygon class="cls-3" points="0 0 0 132.88 290.39 132.88 290.39 117.15 16.07 117.15 16.12 15.91 290.39 15.91 290.39 0 0 0"/></g></g></svg>